HIERARCHY
ROOT pelvis
{
  OFFSET 0 100 0
  CHANNELS 6 Xposition Yposition Zposition Zrotation Xrotation Yrotation
  JOINT pelvis_right_femur
  {
    OFFSET -10.78128 -3.44521 -0.5502486
    CHANNELS 3 Zrotation Xrotation Yrotation
    JOINT right_femur_tibia
    {
      OFFSET -0.8047443 -44.0398 -0.1307829
      CHANNELS 3 Zrotation Xrotation Yrotation
      JOINT right_tibia_foot
      {
        OFFSET 3.006224 -47.83518 -5
        CHANNELS 3 Zrotation Xrotation Yrotation
        End Site
        {
          OFFSET 0 -5 15
        }
      }
    }
  }
  JOINT pelvis_left_femur
  {
    OFFSET 10.78128 -3.44521 -0.5502486
    CHANNELS 3 Zrotation Xrotation Yrotation
    JOINT left_femur_tibia
    {
      OFFSET 0.8047443 -44.0398 -0.1307829
      CHANNELS 3 Zrotation Xrotation Yrotation
      JOINT left_tibia_foot
      {
        OFFSET -4.370144 -48.10324 -4.275266
        CHANNELS 3 Zrotation Xrotation Yrotation
        End Site
        {
          OFFSET 0 -5 15
        }
      }
    }
  }
  JOINT pelvis_spine1
  {
    OFFSET 0 6.468898 -3.129235
    CHANNELS 3 Zrotation Xrotation Yrotation
    JOINT spine1
    {
      OFFSET 0 23.15396 4.99043
      CHANNELS 3 Zrotation Xrotation Yrotation
      JOINT spine2
      {
        OFFSET 0 20.79997 -5.064912
        CHANNELS 3 Zrotation Xrotation Yrotation
        JOINT neck
        {
          OFFSET 0 14.38658 9.616178
          CHANNELS 3 Zrotation Xrotation Yrotation
          End Site
          {
            OFFSET 0 20 0
          }
        }
      }
      JOINT right_manubrium
      {
        OFFSET -5.722621 16.35077 3.967754
        CHANNELS 3 Zrotation Xrotation Yrotation
        JOINT right_clavicle
        {
          OFFSET -13.16364 1.694482 -4.693211
          CHANNELS 3 Zrotation Xrotation Yrotation
          JOINT right_humerus
          {
            OFFSET -28.5034 -0.3100689 -2.792744
            CHANNELS 3 Zrotation Xrotation Yrotation
            JOINT right_radius
            {
              OFFSET -25.15693 0.02248979 -1.271978
              CHANNELS 3 Zrotation Xrotation Yrotation
              End Site
              {
                OFFSET -15 0 0
              }
            }
          }
        }
      }
      JOINT left_manubrium
      {
        OFFSET 5.722621 16.35077 3.967754
        CHANNELS 3 Zrotation Xrotation Yrotation
        JOINT left_clavicle
        {
          OFFSET 13.16364 1.694482 -4.693211
          CHANNELS 3 Zrotation Xrotation Yrotation
          JOINT left_humerus
          {
            OFFSET 29.39168 -1.063119 -2.237045
            CHANNELS 3 Zrotation Xrotation Yrotation
            JOINT left_radius
            {
              OFFSET 24.59957 -0.9528479 0.9047498
              CHANNELS 3 Zrotation Xrotation Yrotation
              End Site
              {
                OFFSET 15 -0 -0
              }
            }
          }
        }
      }
    }
  }
}
MOTION
Frames: 15
Frame Time: 0.0416666666667
0 103.5113 0 0.8566824 -1.281686 0.2277631 3.618522 -14.63681 8.222692 1.319677e-06 36.38888 -1.645015e-06 -7.044022 -18.0438 -3.143553 -7.188893 5.827289 -22.70398 1.504e-06 5.880201 -1.802855e-06 6.943684 -18.12218 25.84974 -3.777083 -2.36581 4.744545 2.2435 8.992966 -7.177688 1.138822 22.53621 7.049251 3.063748 -23.95925 9.327498 5.922121 -20.166 11.5215 84.4914 35.49554 -16.98132 4.574295e-07 -2.98495e-07 17.34379 -6.701093 7.642603 4.902347 5.114662 -18.93708 -1.509541 -95.72212 30.16466 24.58432 -9.324692e-07 -4.394115e-07 -15.12506 3.703124 17.33323 9.735229
0.4160258 103.4022 1.105224 0.81031 -1.140504 0.512652 3.726452 -16.25358 8.389386 1.161075e-06 37.67037 -1.59738e-06 -6.68937 -17.14574 -3.383563 -7.171528 7.552425 -22.75639 1.304089e-06 5.73997 -1.207285e-06 6.827763 -18.44088 25.40395 -3.761058 -2.492441 4.578698 2.321887 9.082568 -7.448564 1.109456 22.35537 7.135108 3.072672 -23.98231 9.388779 6.061315 -19.99782 11.55326 85.10884 35.49178 -17.83248 4.127684e-07 -1.208227e-07 17.16293 -6.710618 7.967017 4.788707 5.10335 -19.12368 -1.636752 -95.41336 30.12989 24.21642 -7.465983e-07 -3.616209e-07 -15.73976 3.598249 17.11435 9.917095
0.8234616 103.3293 2.393603 0.7288041 -0.8164142 0.8570824 3.866526 -18.10442 8.28271 9.842216e-07 37.44366 -1.42083e-06 -6.441284 -16.119 -3.472925 -7.077609 9.238898 -22.59262 1.105005e-06 5.559838 -6.111605e-07 6.590442 -18.82093 24.73133 -3.71822 -2.600248 4.385217 2.447381 9.153259 -7.755968 1.043742 22.14949 7.252797 3.125528 -24.07849 9.405877 6.145761 -19.78082 11.58868 85.79477 35.58902 -18.80618 3.594271e-07 -1.107184e-08 16.74016 -6.873425 8.305014 4.774307 5.193656 -19.48466 -1.760622 -94.90088 29.99173 23.55442 -5.662423e-07 -2.912637e-07 -16.75301 3.647804 16.86277 9.896928
1.213434 103.2291 3.93619 0.6101236 -0.3014822 1.2391 4.005508 -19.97472 7.878621 8.178952e-07 35.61462 -1.127788e-06 -6.34035 -15.01725 -3.359499 -6.924043 10.67126 -22.20871 9.387758e-07 5.384443 -9.381065e-08 6.215215 -19.20882 23.85861 -3.652275 -2.677633 4.18374 2.611629 9.19103 -8.066213 0.9420798 21.9348 7.402437 3.229721 -24.25944 9.375948 6.178098 -19.52564 11.62441 86.47308 35.82742 -19.80105 3.012724e-07 1.046162e-08 16.08987 -7.195392 8.625091 4.888083 5.384787 -19.98728 -1.851232 -94.25069 29.75885 22.67275 -4.17016e-07 -2.381616e-07 -18.0719 3.851357 16.5878 9.67829
1.574348 103.0421 5.78398 0.4701991 0.3277782 1.642639 4.132238 -21.97623 7.259658 6.934727e-07 32.52919 -7.812303e-07 -6.309339 -13.89239 -3.139744 -6.733362 12.01478 -21.64941 7.90691e-07 5.305206 3.622457e-07 5.714504 -19.64479 22.83775 -3.575565 -2.718214 3.966785 2.80557 9.197528 -8.388366 0.8191631 21.73069 7.577011 3.369149 -24.47916 9.317384 6.171288 -19.20279 11.65861 87.21594 36.15126 -20.88847 2.402144e-07 -3.729008e-08 15.2227 -7.651895 8.947015 5.079467 5.665535 -20.61444 -1.92461 -93.4601 29.47478 21.5062 -2.889448e-07 -2.039437e-07 -19.71261 4.152886 16.27798 9.323153
1.900771 102.7206 7.946774 0.3126147 1.020367 2.043894 4.226397 -23.75693 6.482047 6.427205e-07 28.45751 -4.204727e-07 -6.3971 -12.89391 -2.798164 -6.521821 13.00009 -20.96921 6.970003e-07 5.355496 6.782321e-07 5.138804 -20.01417 21.7688 -3.486265 -2.718165 3.765811 3.005234 9.160822 -8.665318 0.688024 21.53944 7.746521 3.525493 -24.71377 9.224376 6.121024 -18.85236 11.67579 87.80083 36.54088 -21.84789 1.824464e-07 -1.547931e-07 14.241 -8.151389 9.201163 5.32511 5.993437 -21.26134 -1.952324 -92.57878 29.15911 20.23385 -2.1207e-07 -1.905011e-07 -21.40399 4.531208 15.97459 8.851353
2.198119 102.2814 10.50477 0.08322309 1.763316 2.441994 4.345809 -25.37651 5.679308 6.293544e-07 24.22338 -3.539825e-08 -6.540205 -11.82511 -2.43058 -6.261438 13.95793 -20.22516 6.640285e-07 5.756493 1.10321e-06 4.297084 -20.21327 20.4852 -3.335856 -2.710659 3.536182 3.21612 9.076483 -8.920498 0.5681463 21.33079 7.904241 3.670804 -24.96858 9.138338 6.053972 -18.45493 11.65184 88.37573 36.91871 -22.758 1.147633e-07 -2.674245e-07 13.21175 -8.634548 9.471785 5.611248 6.301392 -21.83413 -1.925902 -91.76944 28.8388 19.04603 -1.992778e-07 -1.31441e-07 -22.94605 4.859659 15.61249 8.458371
2.469646 101.7448 13.46508 -0.1663138 2.380238 2.828767 4.480438 -26.6269 4.979118 6.706377e-07 20.40786 2.949778e-07 -6.706903 -10.91448 -2.140521 -5.99195 14.78703 -19.52085 7.014465e-07 6.61877 1.525973e-06 3.320699 -20.22582 19.22256 -3.150963 -2.67411 3.305655 3.399706 8.951918 -9.108322 0.4883323 21.17 8.015733 3.774474 -25.16901 9.073314 5.961342 -18.0356 11.5837 88.88281 37.17764 -23.50544 5.346376e-08 -3.688644e-07 12.23563 -9.02866 9.703423 5.863734 6.549611 -22.25421 -1.865508 -91.09934 28.58884 17.99364 -2.627236e-07 -4.390096e-08 -24.151 5.090855 15.25704 8.184409
2.738785 101.2195 16.91297 -0.4861749 2.86036 3.21538 4.707658 -27.34356 4.520761 6.816199e-07 17.89666 5.890351e-07 -6.85466 -9.900958 -1.970985 -5.693837 15.59417 -18.87192 7.977965e-07 8.327217 2.12322e-06 2.048837 -19.82837 17.81267 -2.876548 -2.654983 3.065628 3.553811 8.818728 -9.239074 0.456491 21.00412 8.071123 3.816593 -25.32744 9.04452 5.878955 -17.61979 11.46821 89.37624 37.26184 -24.08917 -1.258638e-08 -3.752969e-07 11.42427 -9.308075 9.988385 6.097782 6.638192 -22.41926 -1.772813 -90.73918 28.39891 17.4004 -3.909521e-07 1.27565e-07 -24.74267 5.103675 14.83484 8.222856
3.031873 100.8386 20.87237 -0.8333142 3.120355 3.600435 5.015839 -27.25852 4.339059 6.366358e-07 17.01867 8.002335e-07 -7.032978 -8.799559 -1.89318 -5.40969 16.13367 -18.30561 9.545537e-07 11.0911 2.670119e-06 0.659827 -18.93021 16.42218 -2.535373 -2.652977 2.859351 3.650517 8.718347 -9.273296 0.4715885 20.83873 8.052902 3.799161 -25.41221 9.02418 5.814396 -17.23918 11.3202 89.64973 37.1725 -24.35938 -6.900959e-08 -2.892165e-07 10.80129 -9.430085 10.25499 6.27199 6.522455 -22.29654 -1.671045 -90.61236 28.25967 17.33444 -5.722226e-07 3.377781e-07 -24.57885 4.936293 14.39557 8.511268
3.367764 100.7291 25.34465 -1.17858 3.10942 3.965035 5.433318 -26.35007 4.448094 5.336151e-07 17.49149 9.054278e-07 -7.217722 -7.762864 -1.940177 -5.130479 16.29125 -17.7662 1.14104e-06 15.16314 3.086041e-06 -0.7789604 -17.5168 15.12902 -2.127667 -2.653709 2.720045 3.68877 8.678463 -9.21739 0.5315473 20.69283 7.947078 3.717046 -25.39353 8.990653 5.754867 -16.90897 11.16649 89.74213 36.88451 -24.36415 -1.123411e-07 -1.18262e-07 10.3638 -9.419725 10.5188 6.359914 6.207084 -21.93729 -1.585953 -90.69426 28.15011 17.73561 -7.846506e-07 5.641153e-07 -23.7806 4.601157 13.9453 9.016604
3.753319 100.9833 30.32194 -1.49523 2.86946 4.261513 5.972304 -24.48149 4.761438 4.020866e-07 18.31567 9.155896e-07 -7.407012 -7.027423 -2.046228 -4.827581 15.65711 -17.09278 1.349524e-06 20.84972 3.204708e-06 -2.234632 -15.55653 13.97992 -1.656028 -2.630253 2.721344 3.680776 8.728408 -9.076737 0.6118868 20.5894 7.761326 3.595445 -25.28766 8.901021 5.698848 -16.66693 11.06373 89.71451 36.49978 -24.16589 -1.455153e-07 9.159911e-08 10.09044 -9.397997 10.81693 6.408138 5.741107 -21.45629 -1.513255 -91.02372 28.01937 18.55744 -9.978158e-07 7.704493e-07 -22.61343 4.138832 13.4666 9.676826
4.150792 101.6277 35.60573 -1.633405 2.290931 4.402833 6.530111 -21.78392 5.215164 3.169518e-07 18.81495 7.21348e-07 -7.585318 -7.001645 -2.222868 -4.57863 13.97276 -16.29275 1.709479e-06 28.14401 2.472035e-06 -3.325252 -13.33903 13.36283 -1.234535 -2.517422 2.934017 3.602244 8.901969 -8.834416 0.7002941 20.61155 7.498239 3.464333 -25.01071 8.710891 5.650984 -16.48126 11.06325 89.41223 36.0983 -23.78788 -1.403586e-07 2.46734e-07 9.840564 -9.360461 11.01937 6.296848 5.208939 -20.99994 -1.50478 -91.26988 27.89929 19.33692 -1.1577e-06 8.227324e-07 -21.47125 3.69548 13.07783 10.23006
4.535196 102.6191 41.0233 -1.520836 1.459626 4.339468 6.854045 -18.00709 5.545804 2.786637e-07 18.76959 4.037419e-07 -7.627655 -7.520628 -2.295732 -4.415094 10.79535 -15.28695 2.410666e-06 35.93315 6.746941e-07 -4.049019 -11.14611 13.3576 -0.9791036 -2.289103 3.407821 3.418109 9.200872 -8.457491 0.7618785 20.83351 7.253466 3.399965 -24.61676 8.438874 5.635099 -16.44509 11.21474 88.97658 35.85332 -23.14734 -1.067553e-07 2.807151e-07 9.75207 -9.760709 11.18915 6.332203 4.71635 -20.62894 -1.541583 -91.70489 27.77404 20.13291 -1.214134e-06 6.823593e-07 -20.47688 3.226371 12.69642 10.75067
4.87583 103.835 46.35558 -1.135557 0.4721246 4.057765 6.833048 -13.50893 5.644347 2.841332e-07 18.01904 1.263818e-08 -7.484542 -8.475397 -2.1919 -4.330833 6.308268 -14.14814 3.642908e-06 42.88491 -2.28257e-06 -4.269575 -9.328538 13.97374 -0.9664394 -1.960882 4.107766 3.125778 9.591987 -7.964359 0.775818 21.2085 7.065012 3.424811 -24.10693 8.086453 5.637748 -16.5712 11.50313 88.24618 35.80983 -22.18346 -4.86795e-08 1.644518e-07 9.846237 -10.6726 11.28445 6.571682 4.346001 -20.39437 -1.637915 -92.07932 27.6137 20.73951 -1.118394e-06 3.360906e-07 -19.79752 2.801953 12.33872 11.12223
